<svg xmlns="http://www.w3.org/2000/svg" version="1.1" xmlns:xlink="http://www.w3.org/1999/xlink" width="240" height="278"><metadata><rdf:RDF xmlns:rdf="http://www.w3.org/1999/02/22-rdf-syntax-ns#" xmlns:dc="http://purl.org/dc/elements/1.1/"><rdf:Description><dc:creator>RealFaviconGenerator</dc:creator><dc:source>https://realfavicongenerator.net</dc:source></rdf:Description></rdf:RDF></metadata><svg width="240" height="278" viewBox="60 0 560 620" id="svg12" sodipodi:docname="logo.svg" inkscape:version="1.4 (e7c3feb1, 2024-10-09)" xmlns:inkscape="http://www.inkscape.org/namespaces/inkscape" xmlns:sodipodi="http://sodipodi.sourceforge.net/DTD/sodipodi-0.dtd" xmlns:svg="http://www.w3.org/2000/svg">
  <defs id="defs12"></defs>
  <sodipodi:namedview id="namedview12" pagecolor="#ffffff" bordercolor="#000000" borderopacity="0.25" inkscape:showpageshadow="2" inkscape:pageopacity="0.0" inkscape:pagecheckerboard="0" inkscape:deskcolor="#d1d1d1" inkscape:zoom="3.1366906" inkscape:cx="119.87156" inkscape:cy="139" inkscape:window-width="1200" inkscape:window-height="1021" inkscape:window-x="55" inkscape:window-y="31" inkscape:window-maximized="0" inkscape:current-layer="svg12"></sodipodi:namedview>
  <polygon points="340,30 580,170 580,450 340,590 100,450 100,170" fill="#006837" stroke="#004225" stroke-width="5" stroke-linejoin="round" id="polygon1"></polygon>
  <polygon points="340,48 567,178 567,442 340,572 113,442 113,178" fill="none" stroke="#2e7d32" stroke-width="1" stroke-linejoin="round" opacity="0.6" id="polygon2"></polygon>
  <g opacity="0.15" id="g11">
    <rect x="200" y="300" width="12" height="90" rx="2" fill="#fff" id="rect2"></rect>
    <rect x="230" y="260" width="12" height="130" rx="2" fill="#fff" id="rect3"></rect>
    <rect x="260" y="310" width="12" height="80" rx="2" fill="#fff" id="rect4"></rect>
    <rect x="290" y="240" width="12" height="150" rx="2" fill="#fff" id="rect5"></rect>
    <rect x="320" y="280" width="12" height="110" rx="2" fill="#fff" id="rect6"></rect>
    <rect x="350" y="250" width="12" height="140" rx="2" fill="#fff" id="rect7"></rect>
    <rect x="380" y="290" width="12" height="100" rx="2" fill="#fff" id="rect8"></rect>
    <rect x="410" y="260" width="12" height="130" rx="2" fill="#fff" id="rect9"></rect>
    <rect x="440" y="310" width="12" height="80" rx="2" fill="#fff" id="rect10"></rect>
    <rect x="470" y="270" width="12" height="120" rx="2" fill="#fff" id="rect11"></rect>
  </g>
  <text x="340" y="220" text-anchor="middle" font-family="'Helvetica Neue',Helvetica,Arial,sans-serif" font-size="60" font-weight="700" letter-spacing="1" fill="#fff" id="text11">datasusr</text>
  <text x="340" y="453.33344" text-anchor="middle" font-family="'Helvetica Neue', Helvetica, Arial, sans-serif" font-size="14px" font-weight="400" letter-spacing="2" fill="#a5d6a7" id="text12" style="font-size:18.6667px"><tspan style="font-style:normal;font-variant:normal;font-weight:bold;font-stretch:normal;font-size:18.6667px;font-family:'Helvetica Neue', Helvetica, Arial, sans-serif;-inkscape-font-specification:'Helvetica Neue, Helvetica, Arial, sans-serif Bold'" id="tspan12">DATASUS FOR R</tspan></text>
</svg></svg>