<svg width="680" height="540" viewBox="0 0 680 540" xmlns="http://www.w3.org/2000/svg" style="font-family: -apple-system, BlinkMacSystemFont, 'Segoe UI', Helvetica, Arial, sans-serif;">

<rect x="200" y="20" width="280" height="44" rx="10" fill="#EAF3DE" stroke="#3B6D11" stroke-width="0.5"/>
<text x="340" y="42" text-anchor="middle" dominant-baseline="central" font-size="14" font-weight="500" fill="#27500A">datasus_fetch()</text>

<line x1="340" y1="64" x2="340" y2="88" stroke="#888" stroke-width="1.5" marker-end="url(#a)"/>
<defs><marker id="a" viewBox="0 0 10 10" refX="8" refY="5" markerWidth="6" markerHeight="6" orient="auto"><path d="M2 1L8 5L2 9" fill="none" stroke="#888" stroke-width="1.5" stroke-linecap="round" stroke-linejoin="round"/></marker></defs>

<rect x="40" y="88" width="600" height="350" rx="16" fill="none" stroke="#ccc" stroke-width="0.5" stroke-dasharray="6 4"/>
<text x="56" y="106" font-size="12" fill="#888">DATASUS FTP sources</text>

<rect x="60" y="120" width="275" height="52" rx="8" fill="#E1F5EE" stroke="#0F6E56" stroke-width="0.5"/>
<text x="197" y="138" text-anchor="middle" dominant-baseline="central" font-size="14" font-weight="500" fill="#085041">SIHSUS</text>
<text x="197" y="156" text-anchor="middle" dominant-baseline="central" font-size="12" fill="#0F6E56">RD, RJ, SP, ER</text>

<rect x="345" y="120" width="275" height="52" rx="8" fill="#E1F5EE" stroke="#0F6E56" stroke-width="0.5"/>
<text x="482" y="138" text-anchor="middle" dominant-baseline="central" font-size="14" font-weight="500" fill="#085041">SIASUS</text>
<text x="482" y="156" text-anchor="middle" dominant-baseline="central" font-size="12" fill="#0F6E56">PA, AM, AQ, AR + 12 more</text>

<rect x="60" y="184" width="180" height="52" rx="8" fill="#E6F1FB" stroke="#185FA5" stroke-width="0.5"/>
<text x="150" y="202" text-anchor="middle" dominant-baseline="central" font-size="14" font-weight="500" fill="#0C447C">SIM</text>
<text x="150" y="220" text-anchor="middle" dominant-baseline="central" font-size="12" fill="#185FA5">DO, DOFET, DOEXT...</text>

<rect x="250" y="184" width="130" height="52" rx="8" fill="#E6F1FB" stroke="#185FA5" stroke-width="0.5"/>
<text x="315" y="202" text-anchor="middle" dominant-baseline="central" font-size="14" font-weight="500" fill="#0C447C">SINASC</text>
<text x="315" y="220" text-anchor="middle" dominant-baseline="central" font-size="12" fill="#185FA5">DN, DNEX</text>

<rect x="390" y="184" width="230" height="52" rx="8" fill="#E6F1FB" stroke="#185FA5" stroke-width="0.5"/>
<text x="505" y="202" text-anchor="middle" dominant-baseline="central" font-size="14" font-weight="500" fill="#0C447C">CNES</text>
<text x="505" y="220" text-anchor="middle" dominant-baseline="central" font-size="12" fill="#185FA5">ST, LT, PF, EQ + 9 more</text>

<rect x="60" y="248" width="370" height="52" rx="8" fill="#EEEDFE" stroke="#534AB7" stroke-width="0.5"/>
<text x="245" y="266" text-anchor="middle" dominant-baseline="central" font-size="14" font-weight="500" fill="#3C3489">SINAN (19 diseases)</text>
<text x="245" y="284" text-anchor="middle" dominant-baseline="central" font-size="12" fill="#534AB7">DENG, CHIK, ZIKA, TUBE, HANS...</text>

<rect x="440" y="248" width="180" height="52" rx="8" fill="#EEEDFE" stroke="#534AB7" stroke-width="0.5"/>
<text x="530" y="266" text-anchor="middle" dominant-baseline="central" font-size="14" font-weight="500" fill="#3C3489">ESUSNOTIFICA</text>
<text x="530" y="284" text-anchor="middle" dominant-baseline="central" font-size="12" fill="#534AB7">DCCR</text>

<rect x="60" y="312" width="90" height="40" rx="8" fill="#F1EFE8" stroke="#888" stroke-width="0.5"/>
<text x="105" y="332" text-anchor="middle" dominant-baseline="central" font-size="13" font-weight="500" fill="#444">CIH</text>

<rect x="158" y="312" width="90" height="40" rx="8" fill="#F1EFE8" stroke="#888" stroke-width="0.5"/>
<text x="203" y="332" text-anchor="middle" dominant-baseline="central" font-size="13" font-weight="500" fill="#444">CIHA</text>

<rect x="256" y="312" width="90" height="40" rx="8" fill="#F1EFE8" stroke="#888" stroke-width="0.5"/>
<text x="301" y="332" text-anchor="middle" dominant-baseline="central" font-size="13" font-weight="500" fill="#444">RESP</text>

<rect x="354" y="312" width="68" height="40" rx="8" fill="#F1EFE8" stroke="#888" stroke-width="0.5"/>
<text x="388" y="332" text-anchor="middle" dominant-baseline="central" font-size="13" font-weight="500" fill="#444">PO</text>

<rect x="430" y="312" width="68" height="40" rx="8" fill="#F1EFE8" stroke="#888" stroke-width="0.5"/>
<text x="464" y="332" text-anchor="middle" dominant-baseline="central" font-size="13" font-weight="500" fill="#444">PCE</text>

<rect x="506" y="312" width="114" height="40" rx="8" fill="#F1EFE8" stroke="#888" stroke-width="0.5"/>
<text x="563" y="332" text-anchor="middle" dominant-baseline="central" font-size="12" font-weight="500" fill="#444">SISPRENATAL</text>


<rect x="60" y="370" width="280" height="52" rx="8" fill="#FAECE7" stroke="#993C1D" stroke-width="0.5"/>
<text x="200" y="388" text-anchor="middle" dominant-baseline="central" font-size="14" font-weight="500" fill="#712B13">BASE_TERRITORIAL</text>
<text x="200" y="406" text-anchor="middle" dominant-baseline="central" font-size="12" fill="#993C1D">datasus_get_territory()</text>

<rect x="350" y="370" width="270" height="52" rx="8" fill="#FAEEDA" stroke="#854F0B" stroke-width="0.5"/>
<text x="485" y="388" text-anchor="middle" dominant-baseline="central" font-size="14" font-weight="500" fill="#633806">Documentation</text>
<text x="485" y="406" text-anchor="middle" dominant-baseline="central" font-size="12" fill="#854F0B">datasus_docs_url()</text>

<text x="60" y="464" font-size="11" fill="#888">Legend:</text>
<rect x="108" y="453" width="12" height="12" rx="3" fill="#E1F5EE" stroke="#0F6E56" stroke-width="0.5"/>
<text x="126" y="464" font-size="11" fill="#666">Hospital / outpatient</text>
<rect x="268" y="453" width="12" height="12" rx="3" fill="#E6F1FB" stroke="#185FA5" stroke-width="0.5"/>
<text x="286" y="464" font-size="11" fill="#666">Vital statistics / facilities</text>
<rect x="448" y="453" width="12" height="12" rx="3" fill="#EEEDFE" stroke="#534AB7" stroke-width="0.5"/>
<text x="466" y="464" font-size="11" fill="#666">Disease surveillance</text>
<rect x="108" y="475" width="12" height="12" rx="3" fill="#F1EFE8" stroke="#888" stroke-width="0.5"/>
<text x="126" y="486" font-size="11" fill="#666">Other DBC sources</text>
<rect x="268" y="475" width="12" height="12" rx="3" fill="#FAECE7" stroke="#993C1D" stroke-width="0.5"/>
<text x="286" y="486" font-size="11" fill="#666">Territorial (CSV)</text>
<rect x="448" y="475" width="12" height="12" rx="3" fill="#FAEEDA" stroke="#854F0B" stroke-width="0.5"/>
<text x="466" y="486" font-size="11" fill="#666">Documentation</text>

<text x="340" y="516" text-anchor="middle" font-size="12" fill="#999">17 DBC sources via datasus_fetch() + territorial tables + documentation paths</text>
</svg>
