<svg xmlns="http://www.w3.org/2000/svg" version="1.1" xmlns:xlink="http://www.w3.org/1999/xlink" width="238.97058" height="274.82916"><metadata><rdf:RDF xmlns:rdf="http://www.w3.org/1999/02/22-rdf-syntax-ns#" xmlns:dc="http://purl.org/dc/elements/1.1/"><rdf:Description><dc:creator>RealFaviconGenerator</dc:creator><dc:source>https://realfavicongenerator.net</dc:source></rdf:Description></rdf:RDF></metadata><svg width="238.97058" height="274.82916" viewBox="0 0 324.99999 274.82916" id="svg10" xmlns:svg="http://www.w3.org/2000/svg">
  <defs id="defs1">
    <clipPath id="hex">
      <polygon points="500,296 340,388 180,296 180,112 340,20 500,112 " id="polygon1"></polygon>
    </clipPath>
  </defs>
  <g clip-path="url(#hex)" id="g9" transform="translate(-177.5,-96.316186)">
    <rect x="180" y="20" width="106.7" height="122.7" fill="#ffc20a" id="rect1"></rect>
    <rect x="286.70001" y="20" width="106.7" height="122.7" fill="#0052d4" id="rect2"></rect>
    <rect x="393.29999" y="20" width="106.7" height="122.7" fill="#ff6d00" id="rect3"></rect>
    <rect x="180" y="142.7" width="106.7" height="122.7" fill="#0066e0" id="rect4"></rect>
    <rect x="286.70001" y="142.7" width="106.7" height="122.7" fill="#5c7cfa" id="rect5"></rect>
    <rect x="393.29999" y="142.7" width="106.7" height="122.7" fill="#0052d4" id="rect6"></rect>
    <rect x="180" y="265.29999" width="106.7" height="122.7" fill="#e53935" id="rect7"></rect>
    <rect x="286.70001" y="265.29999" width="106.7" height="122.7" fill="#0066e0" id="rect8"></rect>
    <rect x="393.29999" y="265.29999" width="106.7" height="122.7" fill="#00c853" id="rect9"></rect>
  </g>
  <polygon points="180,296 180,112 340,20 500,112 500,296 340,388 " fill="none" stroke="#0042AA" stroke-width="5" id="polygon9" style="stroke:#ececec" transform="translate(-177.5,-96.316186)"></polygon>
  <text x="162.5" y="99.683815" text-anchor="middle" font-family="monospace" font-size="44px" font-weight="700" letter-spacing="3" fill="#ffffff" id="text9">DATASUSR</text>
  <text x="162.5" y="133.68381" text-anchor="middle" font-family="sans-serif" font-size="12px" font-weight="400" letter-spacing="2" fill="#FFFFFFCC" id="text10"><tspan style="fill:#ffffff" id="tspan10">DADOS ABERTOS DO SUS</tspan></text>
</svg></svg>